<svg width="30" height="30" viewBox="0 0 30 30" fill="none" xmlns="http://www.w3.org/2000/svg">
<g clip-path="url(#clip0_301_18)">
<path d="M29.0067 22.8568C29.6595 22.741 30.0966 22.1122 29.9816 21.4546L29.7368 20.0569C29.6215 19.4 28.9969 18.9593 28.3444 19.0754L27.7964 19.1727C27.696 18.9753 27.5855 18.7831 27.4654 18.5967L27.8239 18.1669C28.2498 17.6558 28.183 16.891 27.6757 16.4622L26.5956 15.55C26.3504 15.3428 26.0405 15.2444 25.7183 15.2721C25.3982 15.3004 25.1083 15.452 24.9021 15.6992L24.5447 16.1283C24.3415 16.042 24.134 15.9658 23.9231 15.9006V15.3407C23.9231 14.6733 23.3839 14.1304 22.7212 14.1304H22.6334V2.71247C22.6334 1.8412 21.9291 1.1321 21.0637 1.1321H18.2924V0.622041C18.2924 0.278587 18.0157 0 17.6746 0C17.3334 0 17.0567 0.278587 17.0567 0.622041V1.1321H14.0542V0.622041C14.0542 0.278587 13.7775 0 13.4363 0C13.0952 0 12.8185 0.278587 12.8185 0.622041V1.1321H9.81596V0.622041C9.81596 0.278587 9.53924 0 9.1981 0C8.85695 0 8.58023 0.278587 8.58023 0.622041V1.1321H5.57773V0.622041C5.57773 0.278587 5.30101 0 4.95986 0C4.61872 0 4.342 0.278587 4.342 0.622041V1.1321H1.56975C0.704337 1.1321 0 1.8412 0 2.71247V23.149C0 24.0203 0.704337 24.7294 1.56975 24.7294H14.6287C14.5812 25.0001 14.6188 25.2872 14.7657 25.5433L15.4707 26.7727C15.802 27.3504 16.5389 27.5491 17.1126 27.2155L17.5959 26.9349C17.7573 27.0861 17.9262 27.2288 18.1015 27.3626L17.9109 27.8898C17.8014 28.1929 17.816 28.5214 17.9516 28.815C18.0876 29.1083 18.3284 29.3305 18.6292 29.4411L19.9537 29.9266C20.577 30.155 21.2675 29.8307 21.4947 29.2035L21.6852 28.676C21.9053 28.6873 22.1258 28.6873 22.3458 28.676L22.5368 29.2035C22.6463 29.5067 22.8671 29.7491 23.1587 29.8856C23.3208 29.9618 23.4937 30 23.667 30C23.8054 30 23.9441 29.9758 24.0774 29.9266L25.4023 29.4411C25.7034 29.3308 25.9442 29.1086 26.0798 28.815C26.2158 28.5214 26.2304 28.1929 26.1205 27.8898L25.9299 27.3623C26.1052 27.2285 26.2741 27.0858 26.4355 26.9345L26.9188 27.2155C27.4929 27.5491 28.2294 27.3507 28.5608 26.7724L29.2658 25.543C29.5971 24.965 29.3997 24.2234 28.8256 23.8899L28.3437 23.6099C28.3929 23.3938 28.4309 23.175 28.4577 22.9544L29.0067 22.8568ZM1.56975 2.37653H4.34098V3.06787C4.34098 3.41133 4.6177 3.68991 4.95885 3.68991C5.29999 3.68991 5.57671 3.41133 5.57671 3.06787V2.37653H8.57922V3.06787C8.57922 3.41133 8.85593 3.68991 9.19708 3.68991C9.53823 3.68991 9.81494 3.41133 9.81494 3.06787V2.37653H12.8174V3.06787C12.8174 3.41133 13.0942 3.68991 13.4353 3.68991C13.7765 3.68991 14.0532 3.41133 14.0532 3.06787V2.37653H17.0557V3.06787C17.0557 3.41133 17.3324 3.68991 17.6735 3.68991C18.0147 3.68991 18.2914 3.41133 18.2914 3.06787V2.37653H21.0626C21.2434 2.37653 21.3963 2.5305 21.3963 2.71247V5.60691H1.23607V2.71247C1.23607 2.5305 1.38867 2.37653 1.56975 2.37653ZM1.23607 23.149V6.85133H21.3973V14.1301H21.3105C20.6476 14.1301 20.1084 14.6729 20.1084 15.3404V15.9003C19.8974 15.9655 19.6899 16.0416 19.4868 16.128L19.129 15.6989C18.9232 15.4517 18.6332 15.3001 18.3128 15.2721C17.9916 15.2438 17.6807 15.3428 17.4355 15.55L16.3554 16.4626C15.8478 16.8914 15.7813 17.6561 16.2076 18.1676L16.5657 18.5974C16.4456 18.7838 16.3351 18.976 16.2347 19.1733L15.6863 19.076C15.4422 19.0327 15.197 19.0675 14.9762 19.1706L14.6388 16.665L16.8403 14.3476C16.9977 14.182 17.0519 13.943 16.9814 13.7252C16.9112 13.5074 16.7278 13.3462 16.5039 13.3053L13.3699 12.7331L11.8608 9.90896C11.753 9.70719 11.5441 9.58155 11.3165 9.58155C11.089 9.58155 10.8801 9.70719 10.7723 9.90896L9.26321 12.7331L6.12913 13.3053C5.90531 13.3462 5.72185 13.5074 5.65165 13.7252C5.58146 13.943 5.63538 14.182 5.79273 14.3476L7.99425 16.665L7.56629 19.8428C7.53577 20.0695 7.6314 20.2952 7.81553 20.4297C7.92303 20.5086 8.05054 20.5485 8.17872 20.5485C8.26994 20.5485 8.3615 20.528 8.44662 20.4867L11.3162 19.0952L14.1858 20.4867C14.1956 20.4915 14.2065 20.4925 14.2166 20.497L14.0488 21.456C13.9338 22.1132 14.3713 22.7421 15.0237 22.8578L15.5731 22.9544C15.5948 23.1326 15.626 23.3095 15.6619 23.485H1.56975C1.38867 23.4846 1.23607 23.331 1.23607 23.149ZM13.3743 16.5346L13.688 18.863L11.5851 17.8432C11.4156 17.761 11.2182 17.761 11.049 17.8432L8.94614 18.863L9.25982 16.5346C9.28491 16.3468 9.22421 16.1581 9.09399 16.0211L7.48083 14.323L9.77764 13.9037C9.9628 13.87 10.1225 13.7532 10.2117 13.5862L11.3176 11.517L12.4234 13.5862C12.5126 13.7532 12.6723 13.87 12.8575 13.9037L15.1543 14.323L13.5411 16.0211C13.4099 16.1581 13.3488 16.3468 13.3743 16.5346ZM27.3149 24.4487L28.1782 24.9503L27.5071 26.1203L26.6424 25.6174C26.3921 25.4719 26.0751 25.5204 25.8791 25.7341C25.5742 26.0667 25.2293 26.3589 24.8529 26.6023C24.6098 26.7597 24.5073 27.0653 24.6064 27.3384L24.9475 28.2824L23.6864 28.7443L23.3452 27.8007C23.2465 27.5275 22.9735 27.3603 22.6863 27.3964C22.2455 27.4528 21.7849 27.4528 21.3448 27.3964C21.0589 27.3603 20.7846 27.5279 20.6859 27.801L20.3447 28.7447L19.0836 28.2824L19.4247 27.3384C19.5234 27.0653 19.421 26.7594 19.1778 26.6023C18.8021 26.3593 18.4569 26.0674 18.1517 25.7341C17.9557 25.5204 17.6386 25.4719 17.3883 25.6174L16.5236 26.1203L15.8525 24.9503L16.2432 24.7232C16.4304 24.7062 16.5938 24.6078 16.6952 24.4607L16.7159 24.4487C16.9662 24.3033 17.0831 24.0025 16.997 23.7246C16.8644 23.2962 16.7864 22.8493 16.7657 22.3959C16.7525 22.105 16.5406 21.8623 16.2557 21.8117L15.2723 21.6373L15.5056 20.3065L16.4873 20.4809C16.7722 20.5308 17.0533 20.3768 17.1649 20.1085C17.3371 19.6936 17.563 19.3007 17.836 18.9408C18.0113 18.7094 18.0038 18.3864 17.818 18.1635L17.1761 17.3936L18.2043 16.5251L18.8452 17.2942C19.0314 17.5175 19.346 17.5807 19.6028 17.4469C20.0005 17.2396 20.4237 17.0846 20.8612 16.9856C21.1437 16.9221 21.3441 16.6698 21.3441 16.3786V15.3745H22.686V16.3786C22.686 16.6698 22.8867 16.9221 23.1689 16.9856C23.6063 17.0843 24.0295 17.2396 24.4273 17.4469C24.6844 17.5807 24.9991 17.5172 25.1849 17.2942L25.8258 16.5251L26.854 17.3936L26.2121 18.1635C26.0262 18.3867 26.0188 18.7097 26.1941 18.9412C26.4667 19.3007 26.6926 19.6936 26.8652 20.1088C26.9768 20.3771 27.2576 20.5308 27.5427 20.4813L28.5248 20.3068L28.7578 21.6376L27.7744 21.8121C27.4895 21.8626 27.2776 22.1053 27.2643 22.3962C27.2436 22.8496 27.1657 23.2965 27.0331 23.725C26.9479 24.0025 27.0646 24.3033 27.3149 24.4487ZM22.0155 17.9327C19.7526 17.9327 17.9116 19.7862 17.9116 22.0644C17.9116 24.3426 19.7526 26.1961 22.0155 26.1961C24.2784 26.1961 26.1195 24.3426 26.1195 22.0644C26.1195 19.7862 24.2784 17.9327 22.0155 17.9327ZM22.0155 24.9516C20.4343 24.9516 19.1477 23.6563 19.1477 22.0644C19.1477 20.4724 20.4343 19.1771 22.0155 19.1771C23.5968 19.1771 24.8834 20.4724 24.8834 22.0644C24.8834 23.6563 23.5968 24.9516 22.0155 24.9516Z" fill="#444444"/>
</g>
<defs>
<clipPath id="clip0_301_18">
<rect width="30" height="30" fill="white"/>
</clipPath>
</defs>
</svg>
